<?xml version="1.0" encoding="utf-8"?>
<!-- Generator: Adobe Illustrator 23.0.2, SVG Export Plug-In . SVG Version: 6.00 Build 0)  -->
<svg version="1.1" xmlns="http://www.w3.org/2000/svg" xmlns:xlink="http://www.w3.org/1999/xlink" x="0px" y="0px"
	 viewBox="0 0 180.3 72.8" style="enable-background:new 0 0 180.3 72.8;" xml:space="preserve">
<style type="text/css">
	.st0{fill:#3F4B66;}
	.st1{fill:#FFFFFF;}
	.st2{fill:#ED6B06;}
</style>
<g id="Background">
	<rect x="0.1" y="0" class="st0" width="180.3" height="72.8"/>
</g>
<g id="XPRT.BLOG">
	<polygon class="st1" points="180.3,19.9 180.3,72.8 180.3,0 59.1,0 	"/>
</g>
<g id="Laag_1">
	<g>
		<g>
			<path class="st0" d="M165.8,9.6h-0.3c0,0,0,0-0.1,0c0,0,0,0,0-0.1l0.9-1.7l-0.9-1.6c0,0,0,0,0-0.1c0,0,0,0,0.1,0h0.3
				c0.1,0,0.1,0,0.1,0.1l0.7,1.3h0l0.7-1.3c0-0.1,0.1-0.1,0.1-0.1h0.3c0,0,0,0,0.1,0c0,0,0,0,0,0.1L167,7.8l0.9,1.7c0,0,0,0,0,0.1
				c0,0,0,0-0.1,0h-0.3c-0.1,0-0.1,0-0.1-0.1l-0.8-1.4h0l-0.8,1.4C165.9,9.6,165.8,9.6,165.8,9.6z"/>
			<path class="st0" d="M168.8,10.8h-0.2c-0.1,0-0.1,0-0.1-0.1V6.9c0-0.1,0-0.1,0.1-0.1h0.2c0.1,0,0.1,0,0.1,0.1v0.2h0
				c0.1-0.2,0.3-0.3,0.5-0.3h0.3c0.2,0,0.4,0.1,0.6,0.2c0.1,0.1,0.2,0.3,0.2,0.6v1.2c0,0.3-0.1,0.4-0.2,0.6
				c-0.1,0.1-0.3,0.2-0.6,0.2h-0.3c-0.3,0-0.5-0.1-0.5-0.3h0L168.8,10.8C168.9,10.8,168.9,10.8,168.8,10.8z M169.4,9.3h0.3
				c0.3,0,0.5-0.2,0.5-0.5V7.7c0-0.3-0.2-0.5-0.5-0.5h-0.3c-0.2,0-0.3,0-0.4,0.1c-0.1,0.1-0.1,0.2-0.1,0.4v1.1c0,0.2,0,0.3,0.1,0.4
				C169.1,9.2,169.2,9.3,169.4,9.3z"/>
			<path class="st0" d="M171.3,6.4V5.9c0-0.1,0-0.1,0.1-0.1h0.2c0.1,0,0.1,0,0.1,0.1v0.5c0,0.1,0,0.1-0.1,0.1L171.3,6.4
				C171.3,6.5,171.3,6.5,171.3,6.4z M171.3,9.5V6.9c0-0.1,0-0.1,0.1-0.1h0.2c0.1,0,0.1,0,0.1,0.1v2.6c0,0.1,0,0.1-0.1,0.1L171.3,9.5
				C171.3,9.6,171.3,9.6,171.3,9.5z"/>
			<path class="st0" d="M172.8,9.6h-0.2c-0.1,0-0.1,0-0.1-0.1V6.9c0-0.1,0-0.1,0.1-0.1h0.2c0.1,0,0.1,0,0.1,0.1v0.2h0
				c0-0.1,0.1-0.1,0.2-0.2c0.1-0.1,0.2-0.1,0.4-0.1h0.2c0,0,0.1,0,0.1,0.1v0.2c0,0,0,0,0,0.1c0,0,0,0-0.1,0h-0.3
				c-0.2,0-0.3,0-0.4,0.1c-0.1,0.1-0.1,0.2-0.1,0.4L172.8,9.6C172.9,9.6,172.9,9.6,172.8,9.6z"/>
			<path class="st0" d="M174.4,6.4V5.9c0-0.1,0-0.1,0.1-0.1h0.2c0.1,0,0.1,0,0.1,0.1v0.5c0,0.1,0,0.1-0.1,0.1L174.4,6.4
				C174.4,6.5,174.4,6.5,174.4,6.4z M174.4,9.5V6.9c0-0.1,0-0.1,0.1-0.1h0.2c0.1,0,0.1,0,0.1,0.1v2.6c0,0.1,0,0.1-0.1,0.1L174.4,9.5
				C174.4,9.6,174.4,9.6,174.4,9.5z"/>
			<path class="st0" d="M175.8,7.2h-0.3c-0.1,0-0.1,0-0.1-0.1V6.9c0-0.1,0-0.1,0.1-0.1h0.3c0,0,0.1,0,0.1,0V6.4c0-0.1,0-0.1,0.1-0.1
				h0.2c0,0,0.1,0,0.1,0.1v0.5c0,0,0,0,0.1,0h0.6c0.1,0,0.1,0,0.1,0.1v0.2c0,0,0,0.1-0.1,0.1h-0.6c0,0-0.1,0-0.1,0v1.6
				c0,0.3,0.2,0.5,0.5,0.5h0.2c0.1,0,0.1,0,0.1,0.1v0.2c0,0,0,0.1-0.1,0.1h-0.3c-0.2,0-0.4-0.1-0.6-0.2c-0.1-0.1-0.2-0.3-0.2-0.6
				L175.8,7.2C175.8,7.2,175.8,7.2,175.8,7.2z"/>
		</g>
		<path class="st2" d="M158.2,2.9h-0.8c-0.2,0-0.3,0.1-0.4,0.2c-0.1,0.1-0.1,0.3,0,0.4c0.1,0.1,2.4,3.9,2.4,3.9
			c0,0.1,0.1,0.1,0.2,0.1h0.1c0.1,0,0.2,0,0.2-0.1l0.4-0.7c0-0.1,0-0.2,0-0.2l-1.5-3.2C158.7,3.1,158.5,2.9,158.2,2.9z"/>
		<path class="st2" d="M159.7,8.7L159.7,8.7c-0.2,0-0.2,0-0.3,0.1l-2.6,4.4c-0.1,0.1,0,0.3,0.1,0.3c0,0,0.1,0,0.1,0
			c0.1,0,0.2,0,0.2-0.1l2.9-4c0.1-0.1,0.1-0.2,0-0.3l-0.2-0.4C159.9,8.8,159.8,8.7,159.7,8.7z"/>
		<path class="st2" d="M164.7,2.9h-0.8c-0.2,0-0.4,0.1-0.6,0.4L160.3,8c-0.1,0.1-0.1,0.2,0,0.3l3.2,5.3c0,0.1,0.1,0.1,0.2,0.1
			c0,0,0.1,0,0.1,0c0.1-0.1,0.2-0.2,0.1-0.3l-2.4-5.2l3.5-4.5c0,0,0,0,0,0c0.1-0.2,0.1-0.3,0.1-0.4C165,3.1,164.9,2.9,164.7,2.9z"/>
	</g>
	<g>
		<g>
			<g>
				<path class="st2" d="M28.2,52.5c-0.9,0-1.7-0.5-2-1.4l-2.9-6.4l-3,6.4c-0.4,0.9-1.1,1.3-2,1.3h-3.8c-0.8,0-1.2-0.5-1.4-0.7
					c-0.2-0.3-0.4-0.8-0.1-1.5L18.8,39l-5.5-10.6c-0.3-0.5-0.2-1,0-1.5c0.3-0.5,0.8-0.8,1.4-0.8h3.6c1,0,1.8,0.5,2.2,1.4l2.7,6.2
					l2.7-6.3c0.4-0.9,1.2-1.4,2.1-1.4h3.7c0.6,0,1.1,0.3,1.4,0.8c0.3,0.5,0.3,1,0.1,1.5L27.8,39l5.7,11.2c0.4,0.8,0.2,1.3,0,1.6
					c-0.2,0.3-0.6,0.7-1.4,0.7H28.2z"/>
				<path class="st1" d="M31.9,27.1c0.3,0,0.4,0.1,0.6,0.3c0.1,0.2,0.1,0.4,0,0.6L26.7,39l5.9,11.6c0.1,0.3,0.1,0.5,0,0.6
					c-0.1,0.2-0.3,0.2-0.6,0.2h-3.8c-0.5,0-0.9-0.3-1.1-0.8l-3.8-8.2h-0.2l-3.8,8.2c-0.2,0.5-0.6,0.8-1.1,0.8h-3.8
					c-0.3,0-0.4-0.1-0.5-0.2c-0.1-0.2-0.1-0.4,0-0.6L19.9,39l-5.7-11.1c-0.1-0.2-0.1-0.4,0-0.6c0.1-0.2,0.3-0.3,0.5-0.3h3.6
					c0.6,0,1.1,0.3,1.3,0.8l3.6,8.2h0.2l3.6-8.2c0.3-0.5,0.7-0.8,1.2-0.8H31.9 M31.9,25.1h-3.7c-1.3,0-2.4,0.7-3,1.9l0,0l0,0
					l-1.8,4.2l-1.8-4.1c-0.5-1.3-1.7-2-3.1-2h-3.6c-1,0-1.8,0.5-2.3,1.3C12,27.1,12,28,12.4,28.8L17.6,39l-5.4,10.8l0,0l0,0
					c-0.4,0.8-0.3,1.7,0.1,2.5c0.5,0.8,1.3,1.2,2.2,1.2h3.8c1.3,0,2.4-0.7,3-1.9l2-4.4l2,4.4c0.5,1.2,1.6,2,2.9,2H32
					c1,0,1.8-0.4,2.3-1.2c0.5-0.8,0.5-1.7,0-2.6l-5.4-10.7l5.3-10.1c0.4-0.9,0.4-1.8-0.1-2.5C33.7,25.6,32.9,25.1,31.9,25.1
					L31.9,25.1z"/>
			</g>
			<g>
				<path class="st2" d="M36.8,52.5c-1.1,0-1.8-0.7-1.8-1.8V27.9c0-1.1,0.7-1.8,1.8-1.8h9.3c2.2,0,4,0.6,5.3,1.9
					c1.3,1.3,1.9,3,1.9,5.3v3.6c0,2.2-0.6,4-1.9,5.3c-1.3,1.3-3.1,1.9-5.3,1.9h-4.2v6.6c0,1.1-0.7,1.8-1.8,1.8H36.8z M45.3,37.9
					c0.6,0,0.9-0.1,1-0.2c0,0,0.2-0.3,0.2-1v-3.2c0-0.8-0.2-1-0.2-1c-0.1-0.1-0.4-0.2-1-0.2h-3.4v5.6H45.3z"/>
				<path class="st1" d="M46.1,27.1c2,0,3.5,0.5,4.6,1.6c1.1,1.1,1.6,2.6,1.6,4.6v3.6c0,2-0.5,3.5-1.6,4.6c-1.1,1.1-2.6,1.6-4.6,1.6
					h-4.8c-0.3,0-0.5,0.1-0.5,0.4v7.2c0,0.5-0.3,0.8-0.8,0.8h-3.2c-0.5,0-0.8-0.3-0.8-0.8V27.9c0-0.5,0.3-0.8,0.8-0.8H46.1
					 M41.3,38.9h4c0.8,0,1.4-0.2,1.7-0.5c0.3-0.3,0.5-0.9,0.5-1.7v-3.2c0-0.8-0.2-1.4-0.5-1.7c-0.3-0.3-0.9-0.5-1.7-0.5h-4
					c-0.3,0-0.4,0.1-0.4,0.4v6.8C40.9,38.8,41,38.9,41.3,38.9 M46.1,25.1h-9.3c-1.6,0-2.8,1.2-2.8,2.8v22.8c0,1.6,1.2,2.8,2.8,2.8
					h3.2c1.6,0,2.8-1.2,2.8-2.8v-5.6h3.2c2.5,0,4.5-0.7,6-2.2c1.5-1.5,2.2-3.5,2.2-6v-3.6c0-2.5-0.7-4.5-2.2-6
					C50.6,25.8,48.6,25.1,46.1,25.1L46.1,25.1z M42.9,33.3h2.4c0.1,0,0.1,0,0.2,0c0,0.1,0,0.1,0,0.2v3.2c0,0.1,0,0.1,0,0.2
					c-0.1,0-0.1,0-0.2,0h-2.4V33.3L42.9,33.3z"/>
			</g>
			<g>
				<path class="st2" d="M69.3,52.5c-0.6,0-1.1-0.1-1.4-0.3c-0.4-0.2-0.8-0.6-1-1.2l-3.5-7.6H62v7.2c0,1.1-0.7,1.8-1.8,1.8H57
					c-1.1,0-1.8-0.7-1.8-1.8V27.9c0-1.1,0.7-1.8,1.8-1.8h9c2.2,0,4,0.6,5.3,1.9c1.3,1.3,2,3.1,2,5.3v3c0,3.5-1.5,5.2-3.1,6.2
					l3.7,7.7c0.3,0.9,0.1,1.4-0.1,1.7c-0.2,0.3-0.6,0.7-1.5,0.7H69.3z M65.1,37.7c0.7,0,1-0.2,1.1-0.3c0.2-0.1,0.2-0.5,0.2-0.9v-3
					c0-0.5-0.1-0.8-0.3-1c-0.2-0.2-0.6-0.3-1.1-0.3H62v5.4H65.1z"/>
				<path class="st1" d="M66,27.1c2,0,3.5,0.5,4.6,1.6c1.1,1.1,1.7,2.6,1.7,4.6v3c0,2.9-1.1,4.8-3.4,5.7v0.2l4.1,8.5
					c0.2,0.6,0,0.9-0.6,0.9h-3.1c-0.5,0-0.8-0.1-1-0.2c-0.2-0.1-0.4-0.3-0.5-0.6L64,42.5h-2.5c-0.3,0-0.5,0.1-0.5,0.4v7.8
					c0,0.5-0.3,0.8-0.8,0.8H57c-0.5,0-0.8-0.3-0.8-0.8V27.9c0-0.5,0.3-0.8,0.8-0.8H66 M61.4,38.7h3.7c0.8,0,1.4-0.2,1.8-0.5
					c0.4-0.3,0.6-0.9,0.6-1.7v-3c0-0.8-0.2-1.4-0.6-1.7c-0.4-0.4-1-0.5-1.8-0.5h-3.7c-0.3,0-0.4,0.1-0.4,0.4v6.5
					C61,38.5,61.1,38.7,61.4,38.7 M66,25.1h-9c-1.6,0-2.8,1.2-2.8,2.8v22.8c0,1.6,1.2,2.8,2.8,2.8h3.2c1.6,0,2.8-1.2,2.8-2.8v-5.6
					l3,6.4c0.3,0.8,0.8,1.3,1.4,1.6c0.5,0.2,1.1,0.4,1.9,0.4h3.1c1.3,0,2-0.7,2.3-1.1c0.3-0.4,0.7-1.3,0.2-2.5l0-0.1l0-0.1l-3.3-6.9
					c1.5-1.2,2.8-3.2,2.8-6.5v-3c0-2.5-0.8-4.6-2.3-6C70.5,25.9,68.5,25.1,66,25.1L66,25.1z M63,33.3h2.1c0.2,0,0.3,0,0.3,0
					c0,0.1,0,0.1,0,0.2v3c0,0.1,0,0.1,0,0.1c-0.1,0-0.2,0-0.4,0H63V33.3L63,33.3z"/>
			</g>
			<g>
				<path class="st2" d="M81.3,52.5c-1.1,0-1.8-0.7-1.8-1.8V32.3h-3.7c-1.1,0-1.8-0.7-1.8-1.8v-2.6c0-1.1,0.7-1.8,1.8-1.8h14.4
					c1.1,0,1.8,0.7,1.8,1.8v2.6c0,1.1-0.7,1.8-1.8,1.8h-3.8v18.5c0,1.1-0.7,1.8-1.8,1.8H81.3z"/>
				<path class="st1" d="M90.1,27.1c0.5,0,0.8,0.3,0.8,0.8v2.6c0,0.5-0.3,0.8-0.8,0.8h-4.3c-0.3,0-0.5,0.1-0.5,0.4v19
					c0,0.5-0.3,0.8-0.8,0.8h-3.2c-0.6,0-0.8-0.3-0.8-0.8v-19c0-0.3-0.1-0.4-0.4-0.4h-4.3c-0.5,0-0.8-0.3-0.8-0.8v-2.6
					c0-0.5,0.3-0.8,0.8-0.8H90.1 M90.1,25.1H75.7c-1.6,0-2.8,1.2-2.8,2.8v2.6c0,1.6,1.2,2.8,2.8,2.8h2.7v17.5c0,1.6,1.2,2.8,2.8,2.8
					h3.2c1.6,0,2.8-1.2,2.8-2.8V33.3h2.8c1.6,0,2.8-1.2,2.8-2.8v-2.6C92.9,26.3,91.7,25.1,90.1,25.1L90.1,25.1z"/>
			</g>
			<g>
				<path class="st2" d="M90.5,52.5c-1.1,0-1.8-0.7-1.8-1.8v-4.6c0-1.1,0.7-1.8,1.8-1.8h3.4c1,0,1.7,0.7,1.7,1.7v4.7
					c0,1.1-0.7,1.8-1.7,1.8H90.5z"/>
				<path class="st1" d="M93.9,45.3c0.5,0,0.7,0.2,0.7,0.7v4.7c0,0.5-0.2,0.8-0.7,0.8h-3.4c-0.5,0-0.8-0.3-0.8-0.8v-4.6
					c0-0.5,0.3-0.8,0.8-0.8H93.9 M93.9,43.3h-3.4c-1.6,0-2.8,1.2-2.8,2.8v4.6c0,1.6,1.1,2.8,2.8,2.8h3.4c1.6,0,2.7-1.2,2.7-2.8v-4.7
					C96.6,44.5,95.5,43.3,93.9,43.3L93.9,43.3z"/>
			</g>
			<g>
				<path class="st2" d="M103.3,52.5c-1.1,0-1.8-0.7-1.8-1.8V27.9c0-1.1,0.7-1.8,1.8-1.8h9.1c2.3,0,4.1,0.6,5.3,1.9
					c1.3,1.3,1.9,3,1.9,5.3v1.6c0,1.7-0.6,3.1-1.7,4c0.3,0.2,0.6,0.4,0.8,0.7c0.8,0.9,1.2,2,1.2,3.5v2.3c0,2.2-0.7,4-1.9,5.3
					c-1.3,1.2-3.1,1.9-5.3,1.9H103.3z M112,46.5c0.8,0,1.1-0.2,1.1-0.2c0.1-0.1,0.2-0.5,0.2-1v-2.2c0-0.5-0.1-0.8-0.2-0.9
					c-0.1-0.1-0.4-0.2-1.2-0.2h-3.6v4.6H112z M111.7,36c0.7,0,1-0.2,1.1-0.3c0.2-0.1,0.2-0.5,0.2-0.9v-1.5c0-0.5-0.1-0.8-0.2-1
					c-0.1-0.1-0.3-0.2-1.1-0.2h-3.3V36H111.7z"/>
				<path class="st1" d="M112.5,27.1c2,0,3.5,0.5,4.6,1.6c1.1,1.1,1.6,2.6,1.6,4.6v1.6c0,2.2-1,3.5-3,4.2c1,0.2,1.8,0.6,2.4,1.2
					c0.6,0.7,0.9,1.6,0.9,2.9v2.3c0,2-0.5,3.5-1.6,4.6c-1.1,1.1-2.6,1.6-4.6,1.6h-9.5c-0.5,0-0.8-0.3-0.8-0.8V27.9
					c0-0.5,0.3-0.8,0.8-0.8H112.5 M107.8,37h3.9c0.8,0,1.4-0.2,1.8-0.5s0.6-0.9,0.6-1.7v-1.5c0-0.8-0.2-1.3-0.6-1.7
					c-0.4-0.3-1-0.5-1.8-0.5h-3.9c-0.3,0-0.4,0.1-0.4,0.4v5.1C107.4,36.9,107.5,37,107.8,37 M107.8,47.5h4.3c0.8,0,1.4-0.2,1.8-0.5
					c0.4-0.3,0.6-0.9,0.6-1.7v-2.2c0-0.8-0.2-1.3-0.6-1.7c-0.4-0.3-1-0.5-1.9-0.5h-4.2c-0.3,0-0.4,0.1-0.4,0.4v5.7
					C107.4,47.4,107.5,47.5,107.8,47.5 M112.5,25.1h-9.1c-1.6,0-2.8,1.2-2.8,2.8v22.8c0,1.6,1.2,2.8,2.8,2.8h9.5
					c2.5,0,4.5-0.7,6-2.2c1.5-1.4,2.2-3.5,2.2-6v-2.3c0-1.7-0.5-3.2-1.4-4.2c0,0-0.1-0.1-0.1-0.1c0.8-1,1.2-2.4,1.2-3.9v-1.6
					c0-2.5-0.8-4.5-2.2-6C117,25.8,115,25.1,112.5,25.1L112.5,25.1z M109.4,33.1h2.3c0.1,0,0.2,0,0.3,0c0,0.1,0,0.1,0,0.2v1.5
					c0,0.1,0,0.1,0,0.2c-0.1,0-0.2,0-0.3,0h-2.3V33.1L109.4,33.1z M109.4,42.9h2.6c0.2,0,0.3,0,0.4,0c0,0,0,0.1,0,0.1v2.2
					c0,0.1,0,0.1,0,0.2c-0.1,0-0.2,0-0.3,0h-2.7V42.9L109.4,42.9z"/>
			</g>
			<g>
				<path class="st2" d="M124.2,52.5c-1.1,0-1.8-0.7-1.8-1.8V25.6c0-1.1,0.7-1.8,1.8-1.8h3.2c1.1,0,1.8,0.7,1.8,1.8v25.1
					c0,1.1-0.7,1.8-1.8,1.8H124.2z"/>
				<path class="st1" d="M127.5,24.8c0.5,0,0.8,0.3,0.8,0.8v25.1c0,0.5-0.3,0.8-0.8,0.8h-3.2c-0.5,0-0.8-0.3-0.8-0.8V25.6
					c0-0.5,0.3-0.8,0.8-0.8H127.5 M127.5,22.8h-3.2c-1.6,0-2.8,1.2-2.8,2.8v25.1c0,1.6,1.2,2.8,2.8,2.8h3.2c1.6,0,2.8-1.2,2.8-2.8
					V25.6C130.3,24,129.1,22.8,127.5,22.8L127.5,22.8z"/>
			</g>
			<g>
				<path class="st2" d="M138.5,52.5c-2.3,0-4.1-0.6-5.3-1.9c-1.3-1.3-1.9-3-1.9-5.3v-7c0-2.3,0.7-4.1,1.9-5.3
					c1.3-1.2,3.1-1.9,5.3-1.9h3.4c2.2,0,4,0.6,5.3,1.9c1.3,1.3,2,3,2,5.3v7c0,2.2-0.7,4-2,5.3c-1.3,1.3-3.1,1.9-5.3,1.9H138.5z
					 M139.2,37.3c-0.8,0-1,0.2-1,0.2c0,0-0.2,0.2-0.2,1v6.7c0,0.8,0.2,1,0.2,1s0.2,0.2,1,0.2h1.9c0.8,0,1-0.2,1-0.2
					c0.1-0.1,0.2-0.4,0.2-1v-6.7c0-0.6-0.1-0.9-0.2-1c0,0-0.3-0.2-1-0.2H139.2z"/>
				<path class="st1" d="M141.8,32.2c2,0,3.5,0.5,4.6,1.6c1.1,1.1,1.7,2.6,1.7,4.6v7c0,2-0.6,3.5-1.7,4.6c-1.1,1.1-2.6,1.6-4.6,1.6
					h-3.4c-2,0-3.5-0.5-4.6-1.6c-1.1-1.1-1.6-2.6-1.6-4.6v-7c0-2,0.5-3.5,1.6-4.6c1.1-1.1,2.6-1.6,4.6-1.6H141.8 M139.2,47.4h1.9
					c0.8,0,1.4-0.2,1.7-0.5c0.3-0.3,0.5-0.9,0.5-1.7v-6.7c0-0.8-0.2-1.4-0.5-1.7c-0.3-0.3-0.9-0.5-1.7-0.5h-1.9
					c-0.8,0-1.4,0.2-1.7,0.5c-0.3,0.3-0.5,0.9-0.5,1.7v6.7c0,0.8,0.2,1.4,0.5,1.7C137.8,47.2,138.4,47.4,139.2,47.4 M141.8,30.2
					h-3.4c-2.5,0-4.6,0.7-6,2.2c-1.5,1.4-2.2,3.5-2.2,6v7c0,2.6,0.8,4.6,2.2,6c1.5,1.4,3.5,2.2,6,2.2h3.4c2.5,0,4.5-0.7,6-2.2
					c1.5-1.5,2.3-3.5,2.3-6v-7c0-2.5-0.8-4.5-2.3-6C146.4,30.9,144.3,30.2,141.8,30.2L141.8,30.2z M139,38.3c0.1,0,0.1,0,0.2,0h1.9
					c0.1,0,0.2,0,0.2,0c0,0.1,0,0.1,0,0.2v6.7c0,0.1,0,0.1,0,0.2c-0.1,0-0.1,0-0.2,0h-1.9c-0.1,0-0.1,0-0.2,0c0-0.1,0-0.1,0-0.2
					v-6.7C139,38.4,139,38.4,139,38.3L139,38.3z"/>
			</g>
			<g>
				<path class="st2" d="M153.9,58.8c-0.6,0-1-0.2-1.3-0.5c-0.3-0.3-0.5-0.8-0.5-1.3v-2.6c0-1.1,0.7-1.8,1.8-1.8h6.5
					c0.6,0,0.9-0.1,1-0.2c0.1-0.1,0.2-0.3,0.2-1v-0.5c-0.1,0-0.1,0.1-0.2,0.1c-0.8,0.4-1.8,0.6-2.7,0.6h-1.3c-2.2,0-4-0.6-5.2-1.9
					c-1.2-1.3-1.8-3-1.8-5.3v-6.1c0-2.3,0.7-4.1,1.9-5.3c1.3-1.2,3.1-1.9,5.3-1.9h8.8c1.1,0,1.8,0.7,1.8,1.8v18.7c0,2.2-0.7,4-2,5.3
					c-1.3,1.2-3.1,1.9-5.3,1.9H153.9z M158.6,37.3c-0.6,0-0.9,0.1-1,0.2c0,0-0.2,0.3-0.2,1v5.7c0,0.8,0.2,1,0.2,1c0,0,0.2,0.2,1,0.2
					h1.4c1,0,1.6-0.3,1.6-1.9v-6.3H158.6z"/>
				<path class="st1" d="M166.6,32.2c0.6,0,0.8,0.3,0.8,0.8v18.7c0,2-0.6,3.5-1.7,4.6c-1.1,1.1-2.6,1.6-4.6,1.6h-7.3
					c-0.3,0-0.5-0.1-0.6-0.2c-0.1-0.1-0.2-0.3-0.2-0.6v-2.6c0-0.5,0.3-0.8,0.8-0.8h6.5c0.8,0,1.4-0.2,1.7-0.5s0.5-0.9,0.5-1.7v-2.9
					h-0.2c-0.3,0.7-0.8,1.2-1.5,1.6c-0.7,0.4-1.5,0.5-2.2,0.5h-1.3c-2,0-3.4-0.5-4.4-1.6c-1-1.1-1.5-2.6-1.5-4.6v-6.1
					c0-2,0.5-3.5,1.6-4.6c1.1-1.1,2.6-1.6,4.6-1.6H166.6 M158.6,46.4h1.4c1.7,0,2.6-1,2.6-2.9v-6.8c0-0.3-0.2-0.4-0.5-0.4h-3.6
					c-0.8,0-1.4,0.2-1.7,0.5s-0.5,0.9-0.5,1.7v5.7c0,0.8,0.2,1.4,0.5,1.7C157.2,46.3,157.8,46.4,158.6,46.4 M166.6,30.2h-8.8
					c-2.5,0-4.6,0.7-6,2.2c-1.5,1.4-2.2,3.5-2.2,6v6.1c0,2.5,0.7,4.5,2,6c0.5,0.5,1,0.9,1.7,1.3c-1.3,0.2-2.2,1.3-2.2,2.7v2.6
					c0,1,0.4,1.7,0.8,2c0.5,0.5,1.2,0.8,2,0.8h7.3c2.5,0,4.5-0.7,6-2.2c1.5-1.4,2.3-3.5,2.3-6V33C169.4,31.3,168.3,30.2,166.6,30.2
					L166.6,30.2z M158.4,38.3c0.1,0,0.1,0,0.2,0h2v5.3c0,0.6-0.1,0.8-0.1,0.8c0,0,0,0,0,0c0,0-0.1,0.1-0.5,0.1h-1.4
					c-0.1,0-0.1,0-0.2,0c0-0.1,0-0.1,0-0.2v-5.7C158.4,38.5,158.4,38.4,158.4,38.3L158.4,38.3z"/>
			</g>
		</g>
	</g>
</g>
</svg>
